<svg width="92" height="37" viewBox="0 0 92 37" fill="none" xmlns="http://www.w3.org/2000/svg">
<path d="M44.1626 18.5209V24.3834H42.3027V9.90564H47.2353C48.4245 9.8808 49.5744 10.332 50.4294 11.159C51.2944 11.9371 51.7808 13.0511 51.7636 14.2144C51.7883 15.3843 51.301 16.5066 50.4294 17.2872C49.5668 18.1097 48.5021 18.5205 47.2353 18.5197H44.1626V18.5209ZM44.1626 11.6881V16.7419H47.2815C47.9729 16.7624 48.6409 16.4907 49.1217 15.9934C49.5995 15.5288 49.8691 14.8907 49.8691 14.2242C49.8691 13.5578 49.5995 12.9197 49.1217 12.4551C48.6468 11.9471 47.9767 11.6674 47.2815 11.6869H44.1626V11.6881ZM56.0493 14.1544C57.4239 14.1544 58.509 14.5217 59.3045 15.2564C60.1 15.9911 60.4974 16.9984 60.4967 18.2783V24.3834H58.7177V23.0087H58.6368C57.8667 24.1408 56.8425 24.7068 55.5641 24.7068C54.4728 24.7068 53.5599 24.3834 52.8252 23.7365C52.1111 23.1352 51.7063 22.244 51.7231 21.3106C51.7231 20.2856 52.1105 19.4704 52.8852 18.8651C53.66 18.2598 54.6942 17.9564 55.988 17.9549C57.0924 17.9549 58.0019 18.157 58.7165 18.5613V18.1362C58.7208 17.5 58.4387 16.8955 57.9483 16.4901C57.4565 16.0464 56.8156 15.8043 56.1532 15.812C55.1143 15.812 54.2922 16.2502 53.6869 17.1266L52.0489 16.095C52.9499 14.8012 54.2834 14.1544 56.0493 14.1544ZM53.643 21.3511C53.6405 21.8313 53.8703 22.2832 54.2599 22.564C54.6712 22.8875 55.1818 23.0589 55.705 23.0492C56.4898 23.0478 57.2421 22.7355 57.797 22.1805C58.4131 21.6006 58.7212 20.9202 58.7212 20.1393C58.1413 19.6772 57.3326 19.4462 56.2953 19.4462C55.5398 19.4462 54.9099 19.6283 54.4054 19.9926C53.896 20.3622 53.643 20.8116 53.643 21.3511ZM70.7084 14.4778L64.4982 28.7499H62.5783L64.8828 23.7561L60.7993 14.4778H62.8209L65.7723 21.5936H65.8127L68.6833 14.4778H70.7084Z" fill="#5F6368"/>
<path d="M36.647 17.2572C36.6477 16.6904 36.5998 16.1246 36.5038 15.566H28.6602V18.7693H33.1526C32.9668 19.8031 32.3668 20.7162 31.4915 21.2968V23.3761H34.1726C35.7425 21.9287 36.647 19.7882 36.647 17.2572Z" fill="#4285F4"/>
<path d="M28.6597 25.3849C30.9042 25.3849 32.7941 24.6479 34.1722 23.3773L31.491 21.298C30.7448 21.8039 29.7837 22.0927 28.6597 22.0927C26.4903 22.0927 24.649 20.6303 23.9905 18.6595H21.2285V20.8024C22.6403 23.6117 25.5156 25.3848 28.6597 25.3849Z" fill="#34A853"/>
<path d="M23.9914 18.6596C23.6433 17.6269 23.6433 16.5086 23.9914 15.476V13.3331H21.2294C20.0485 15.6829 20.0485 18.4527 21.2294 20.8025L23.9914 18.6596Z" fill="#FBBC04"/>
<path d="M28.6597 12.0428C29.8458 12.0234 30.9919 12.4716 31.8503 13.2904L34.2242 10.9165C32.7189 9.50265 30.7247 8.72643 28.6597 8.75055C25.5156 8.75069 22.6403 10.5238 21.2285 13.3331L23.9905 15.4759C24.649 13.5052 26.4903 12.0428 28.6597 12.0428Z" fill="#EA4335"/>
</svg>
