<svg width="51" height="97" viewBox="0 0 51 97" fill="none" xmlns="http://www.w3.org/2000/svg">
<path d="M0 78.777C0 83.4241 2.69559 87.4534 6.61262 89.3628L3.65028 76.9518C3.53796 76.4745 3.90299 76.0112 4.39438 76.0112H18.1531C18.5041 76.0112 18.813 76.2499 18.8972 76.6008L21.1295 85.9652C22.6598 83.9716 23.5724 81.4866 23.5724 78.777C23.5724 72.2626 18.2935 66.9978 11.7932 66.9978C5.29291 66.9978 0.0140404 72.2767 0.0140404 78.777H0Z" fill="#26466D"/>
<path d="M11.7782 90.57C9.92503 90.57 8.17008 90.1348 6.59766 89.3766L8.05777 95.4838C8.142 95.8208 8.45088 96.0735 8.80187 96.0735H22.5606C23.052 96.0735 23.417 95.6102 23.3047 95.1328L21.1145 85.965C18.9665 88.7589 15.5689 90.57 11.7642 90.57H11.7782Z" fill="#26466D"/>
<path d="M11.9064 62.1119C5.08314 62.1119 0.267578 58.0545 0.267578 50.7961C0.267578 43.5376 2.71046 41.7827 7.82085 40.5332L8.74746 45.4891C5.91147 46.0086 4.08633 47.7074 4.08633 50.7961C4.08633 53.8848 4.5356 54.5306 5.88339 55.5555C7.23119 56.5804 9.32308 57.0717 11.8923 57.0717C14.4616 57.0717 16.1744 56.819 17.5503 55.8503C18.9963 54.8254 19.6983 53.2811 19.6983 50.7961C19.6983 48.3111 17.9293 46.0367 15.3601 45.3908L16.6798 40.3787C21.1163 42.1196 23.5311 45.8541 23.5311 50.7961C23.5311 57.9422 19.3754 62.1119 11.8923 62.1119H11.9064Z" fill="#26466D"/>
<path d="M0.6449 37.9216L0.6449 22.0991H4.53385L4.53385 33.0639H9.8408L9.8408 23.2784H13.7297L13.7297 33.0639H19.2613V22.0991H23.1503V37.9216H0.630859H0.6449Z" fill="#26466D"/>
<path d="M15.6954 20.2036L15.1479 15.2477C18.3068 15.2477 19.809 13.254 19.809 10.3619C19.809 7.46974 18.9667 5.9254 16.7203 5.9254C14.474 5.9254 14.4319 8.21384 13.7018 11.6254C12.7331 16.1321 11.1607 19.5999 6.85053 19.5999C2.5404 19.5999 0.251953 15.1634 0.251953 10.8252C0.251953 6.48698 2.17537 2.23299 7.45424 1.68545L8.22641 6.61334C5.23599 6.73969 3.94435 8.25596 3.94435 10.8533C3.94435 13.4506 4.84288 14.6861 6.61187 14.6861C8.38085 14.6861 8.92839 12.889 9.50401 9.67396C10.3745 4.78819 11.7223 0.983473 16.5799 0.983473C21.4376 0.983473 23.5295 5.81308 23.5295 10.5023C23.5295 15.1915 21.1147 20.0492 15.6814 20.2177L15.6954 20.2036Z" fill="#26466D"/>
<path d="M43.3281 65.3907H41.8232C41.0405 64.5087 40.3073 63.7259 39.6238 63.0424C38.9402 62.3478 38.3063 61.8076 37.722 61.4217C37.1376 61.0248 36.6029 60.8264 36.1178 60.8264C35.5997 60.8264 35.2083 60.9587 34.9437 61.2233C34.6681 61.4879 34.5302 61.8517 34.5302 62.3147C34.5302 62.6896 34.6405 63.0314 34.861 63.3401C35.0705 63.6377 35.3185 63.9189 35.6052 64.1835L34.3483 65.4568C33.775 64.9497 33.3451 64.4315 33.0584 63.9023C32.7718 63.3621 32.6285 62.7227 32.6285 61.984C32.6285 61.3004 32.7663 60.6996 33.0419 60.1814C33.3175 59.6522 33.7034 59.2443 34.1995 58.9576C34.6956 58.66 35.2799 58.5111 35.9525 58.5111C36.5809 58.5111 37.1983 58.682 37.8046 59.0238C38.4 59.3545 38.9953 59.7955 39.5907 60.3468C40.186 60.898 40.7924 61.4824 41.4098 62.0997C41.3767 61.8352 41.3492 61.5375 41.3271 61.2067C41.294 60.876 41.2775 60.5893 41.2775 60.3468V57.9985H43.3281V65.3907ZM43.5266 52.8997C43.5266 54.0242 43.058 54.9338 42.1209 55.6283C41.1838 56.3119 39.8222 56.6537 38.0362 56.6537C36.2391 56.6537 34.8886 56.3119 33.9845 55.6283C33.0805 54.9338 32.6285 54.0242 32.6285 52.8997C32.6285 51.7751 33.086 50.8711 34.0011 50.1875C34.9051 49.493 36.2501 49.1457 38.0362 49.1457C39.8222 49.1457 41.1838 49.493 42.1209 50.1875C43.058 50.8711 43.5266 51.7751 43.5266 52.8997ZM41.6413 52.8997C41.6413 52.6241 41.5421 52.376 41.3436 52.1555C41.1342 51.935 40.7703 51.7641 40.2522 51.6428C39.723 51.5105 38.9843 51.4444 38.0362 51.4444C37.077 51.4444 36.3438 51.5105 35.8367 51.6428C35.3296 51.7641 34.9823 51.935 34.7948 52.1555C34.6074 52.376 34.5137 52.6241 34.5137 52.8997C34.5137 53.1753 34.6074 53.4234 34.7948 53.6439C34.9823 53.8644 35.3296 54.0408 35.8367 54.1731C36.3438 54.2943 37.077 54.355 38.0362 54.355C38.9843 54.355 39.723 54.2943 40.2522 54.1731C40.7703 54.0408 41.1342 53.8644 41.3436 53.6439C41.5421 53.4234 41.6413 53.1753 41.6413 52.8997ZM43.3281 47.9166H41.8232C41.0405 47.0346 40.3073 46.2519 39.6238 45.5683C38.9402 44.8738 38.3063 44.3335 37.722 43.9477C37.1376 43.5508 36.6029 43.3523 36.1178 43.3523C35.5997 43.3523 35.2083 43.4846 34.9437 43.7492C34.6681 44.0138 34.5302 44.3776 34.5302 44.8407C34.5302 45.2155 34.6405 45.5573 34.861 45.866C35.0705 46.1637 35.3185 46.4448 35.6052 46.7094L34.3483 47.9828C33.775 47.4756 33.3451 46.9575 33.0584 46.4283C32.7718 45.8881 32.6285 45.2486 32.6285 44.5099C32.6285 43.8264 32.7663 43.2255 33.0419 42.7074C33.3175 42.1782 33.7034 41.7703 34.1995 41.4836C34.6956 41.1859 35.2799 41.0371 35.9525 41.0371C36.5809 41.0371 37.1983 41.208 37.8046 41.5498C38.4 41.8805 38.9953 42.3215 39.5907 42.8727C40.186 43.424 40.7924 44.0083 41.4098 44.6257C41.3767 44.3611 41.3492 44.0634 41.3271 43.7327C41.294 43.4019 41.2775 43.1153 41.2775 42.8727V40.5244H43.3281V47.9166ZM43.5266 35.7068C43.5266 36.2801 43.4604 36.7982 43.3281 37.2613C43.1958 37.7133 43.0194 38.1157 42.7989 38.4685C42.5784 38.8213 42.3304 39.1355 42.0547 39.4111L40.5168 38.3197C40.8034 37.9999 41.0515 37.6527 41.261 37.2778C41.4594 36.903 41.5586 36.495 41.5586 36.0541C41.5586 35.7013 41.498 35.3926 41.3767 35.128C41.2444 34.8634 41.057 34.6594 40.8144 34.5161C40.5719 34.3617 40.2742 34.2846 39.9214 34.2846C39.3922 34.2846 38.9898 34.4389 38.7142 34.7476C38.4386 35.0563 38.3008 35.4532 38.3008 35.9383C38.3008 36.236 38.3394 36.4895 38.4165 36.699C38.4937 36.9085 38.6315 37.1731 38.83 37.4928L38.1354 38.5843L32.8269 38.2866V32.3331H34.8775V36.1864L36.8455 36.3683C36.7573 36.1588 36.6966 35.9659 36.6636 35.7895C36.6195 35.6131 36.5974 35.4146 36.5974 35.1941C36.5974 34.5877 36.7132 34.031 36.9447 33.5238C37.1762 33.0167 37.5345 32.6143 38.0196 32.3166C38.5047 32.0079 39.1166 31.8536 39.8553 31.8536C40.638 31.8536 41.3051 32.0355 41.8563 32.3993C42.3965 32.7521 42.81 33.2207 43.0966 33.805C43.3832 34.3893 43.5266 35.0232 43.5266 35.7068Z" fill="#26466D"/>
</svg>
