<svg width="87" height="19" viewBox="0 0 87 19" fill="none" xmlns="http://www.w3.org/2000/svg">
<g id="logo">
<g id="Group">
<path id="Vector" d="M28.9574 18.1979C26.9973 18.1979 25.1966 17.5508 23.7404 16.4615L30.5851 14.8299L30.5851 14.8299C30.8692 14.7617 31.0628 14.5113 31.0628 14.2268V4.01236C31.0628 3.61381 30.6874 3.31817 30.3005 3.40922L30.3003 3.40926L21.1947 5.58267C22.6157 2.76038 25.5374 0.822072 28.9053 0.802267V0.812538H28.9574C33.7544 0.812538 37.6501 4.7082 37.6501 9.50521C37.6501 14.3023 33.7648 18.1979 28.9574 18.1979Z" fill="#0E1111" fill-opacity="0.5" stroke="#0E1111" stroke-width="0.104228"/>
<path id="Vector_2" d="M16.5666 6.78328L20.9941 5.72475C20.4584 6.8704 20.1514 8.14275 20.1498 9.48436H20.1498V9.49478H20.1498C20.1531 12.2929 21.468 14.7952 23.5031 16.4005L16.8026 18.0012C16.8026 18.0012 16.8025 18.0012 16.8025 18.0013C16.4807 18.0769 16.1683 17.8306 16.1683 17.4995V7.28513C16.1683 7.0496 16.3385 6.84043 16.5664 6.78334C16.5664 6.78332 16.5665 6.7833 16.5666 6.78328Z" fill="#0E1111" fill-opacity="0.5" stroke="#0E1111" stroke-width="0.104228"/>
<path id="Vector_3" d="M49.7299 15.4254C51.5829 15.4254 53.2779 14.1184 53.7801 12.2163L57.3935 13.1678C56.1004 16.4053 53.3586 18.1666 49.7299 18.1666C47.0873 18.1666 45.002 17.3984 43.5773 15.9452C42.1533 14.4928 41.3822 12.3492 41.3812 9.58355C41.3822 7.06311 42.1321 4.91856 43.5469 3.40429C44.9621 1.88952 47.0476 1.00011 49.7299 1.00011C52.42 1.00011 54.0778 1.45317 55.179 2.3691C56.27 3.27662 56.8244 4.64636 57.2852 6.51441L53.7114 7.18261C53.5132 6.14535 53.1004 5.28719 52.4505 4.68544C51.7892 4.07316 50.8872 3.73091 49.7299 3.73091C48.5827 3.73091 47.8805 3.81401 47.3687 4.02674C46.8539 4.24069 46.5368 4.58355 46.1551 5.0856C45.3841 6.09947 45.0188 7.66611 45.0188 9.57814C45.0188 11.4869 45.2059 12.773 45.9351 13.8086L45.9352 13.8087C46.7087 14.9002 47.8739 15.4254 49.7299 15.4254Z" fill="#0E1111" fill-opacity="0.5" stroke="#0E1111" stroke-width="0.104228"/>
<path id="Vector_4" d="M59.3402 17.8852V1.28159H70.9825V4.0645H62.8944H62.8423V4.11661V8.05646V8.10857H62.8944H70.107V10.8915H62.8944H62.8423V10.9436V15.0502V15.1023H62.8944H70.9825V17.8852H59.3402Z" fill="#0E1111" fill-opacity="0.5" stroke="#0E1111" stroke-width="0.104228"/>
<path id="Vector_5" d="M74.8084 16.7756C73.4819 15.8413 72.5632 14.4188 72.4849 12.4504L76.0685 12.0544C76.0806 13.2092 76.453 14.0704 77.094 14.6447C77.7448 15.2278 78.6655 15.5088 79.7475 15.5088C80.824 15.5088 81.6601 15.3524 82.2281 14.9791C82.8007 14.6027 83.0932 14.0112 83.0932 13.1637C83.0932 12.7373 82.9843 12.4103 82.7766 12.1534C82.5697 11.8976 82.2687 11.7161 81.8937 11.5724C81.5187 11.4287 81.0653 11.3212 80.5495 11.216C80.3444 11.1741 80.1299 11.1327 79.9062 11.0895C79.5652 11.0236 79.2029 10.9536 78.8203 10.8718C77.1488 10.5125 75.678 10.0426 74.6256 9.26783C73.5767 8.4956 72.9414 7.41916 72.9414 5.83637C72.9414 4.25707 73.7532 3.04731 74.9677 2.2303C76.1835 1.41246 77.8014 0.989736 79.4035 0.989736C81.007 0.989736 82.5904 1.34532 83.8221 2.18453C85.0416 3.01543 85.9203 4.32294 86.1317 6.24075L82.5797 6.79733C82.5244 5.7095 82.2182 4.91884 81.6807 4.39836C81.1335 3.86854 80.3549 3.62672 79.3827 3.62672C78.4142 3.62672 77.6901 3.79394 77.2069 4.13391C76.7202 4.47631 76.4851 4.98881 76.4851 5.65918C76.4851 5.99698 76.5711 6.27944 76.7405 6.51872C76.9093 6.75727 77.1584 6.94944 77.4792 7.11148C78.1189 7.43465 79.0566 7.64411 80.249 7.85759L80.2491 7.8576C82.0624 8.18067 83.6655 8.59103 84.8151 9.36603C85.96 10.1379 86.6578 11.2732 86.6578 13.0594C86.6578 14.842 85.773 16.1163 84.4543 16.9474C83.1334 17.7797 81.3772 18.1666 79.6433 18.1666C77.9107 18.1666 76.15 17.7204 74.8084 16.7756Z" fill="#0E1111" fill-opacity="0.5" stroke="#0E1111" stroke-width="0.104228"/>
</g>
<path id="Vector_6" d="M5.61618 1.1875C2.71669 1.1875 0.366211 3.538 0.366211 6.4375C0.366211 9.337 2.71669 11.6875 5.61618 11.6875C8.51567 11.6875 10.8661 9.337 10.8661 6.4375C10.8661 3.538 8.51567 1.1875 5.61618 1.1875ZM5.61618 10.6714C3.2763 10.6714 1.38233 8.77775 1.38233 6.4375C1.38233 4.09763 3.27594 2.20363 5.61618 2.20363C7.95606 2.20363 9.85003 4.09725 9.85003 6.4375C9.85003 8.77739 7.95642 10.6714 5.61618 10.6714ZM7.88872 8.53191C7.6852 8.73751 6.92488 9.40824 5.68574 9.40824C3.94076 9.40824 2.7118 8.10791 2.7118 6.41136C2.7118 4.73576 3.98778 3.46033 5.67046 3.46033C6.84601 3.46033 7.54897 4.02386 7.73643 4.19658C7.78048 4.23709 7.80876 4.29188 7.81626 4.35126C7.82376 4.41063 7.81 4.47074 7.77741 4.52093L7.39308 5.11607C7.31177 5.24202 7.13977 5.27022 7.02264 5.1779C6.84069 5.03446 6.34916 4.70079 5.71633 4.70079C4.69379 4.70079 4.06691 5.4487 4.06691 6.39607C4.06691 7.27648 4.63611 8.16778 5.72397 8.16778C6.4153 8.16778 6.9273 7.76473 7.11534 7.59144C7.2269 7.48862 7.40316 7.50594 7.49258 7.62823L7.91311 8.20341C7.94895 8.25205 7.9662 8.31192 7.96173 8.37217C7.95725 8.43243 7.93136 8.4891 7.88872 8.53191Z" fill="#0E1111" fill-opacity="0.5"/>
</g>
</svg>
