<svg width="202" height="50" viewBox="0 0 202 50" fill="none" xmlns="http://www.w3.org/2000/svg">
<path d="M36.6882 0C26.8312 0 18.2844 5.71769 14.2344 14.0262L40.5596 7.7427C41.5721 7.50447 42.5548 8.27874 42.5548 9.32103V38.5051C42.5548 39.2495 42.0486 39.9047 41.3041 40.0834L21.441 44.8183C25.6698 48.0643 30.9408 50 36.6882 50C50.506 50 61.6734 38.8029 61.6734 25.0149C61.6734 11.2269 50.4762 0.0297814 36.6882 0.0297814V0Z" fill="#EEF6F2"/>
<path d="M11.6736 24.9851C11.6736 21.0542 12.5968 17.3318 14.2049 13.9965L1.25074 17.0935C0.536033 17.2722 0 17.9274 0 18.6719V47.8559C0 48.8982 0.982727 49.6725 1.99524 49.4342L21.4413 44.7886C15.5152 40.2323 11.6736 33.0256 11.6736 24.9554V24.9851Z" fill="#EEF6F2"/>
<path d="M72.0366 25.2531C72.0366 10.7802 80.6429 0.565796 96.039 0.565796C111.435 0.565796 115.158 5.74746 117.808 16.5872L107.296 18.5527C106.194 12.5372 102.591 8.66586 96.039 8.66586C89.4875 8.66586 88.1176 9.6188 85.9437 12.4776C83.7698 15.3365 82.7275 19.7737 82.7275 25.2233C82.7275 30.673 83.2635 34.3061 85.3183 37.2245C87.4923 40.2918 90.768 41.7808 96.039 41.7808C101.31 41.7808 106.134 38.0286 107.504 32.5789L118.136 35.3782C114.443 44.7885 106.521 49.9106 96.039 49.9106C80.8812 49.9106 72.0366 41.0959 72.0366 25.2233V25.2531Z" fill="#EEF6F2"/>
<path d="M123.347 1.36987H156.909V9.61883H133.651V20.8755H154.407V29.1245H133.651V40.8577H156.909V49.1066H123.347V1.34009V1.36987Z" fill="#EEF6F2"/>
<path d="M160.929 33.2936L171.441 32.1322C171.441 38.8326 175.67 42.019 181.805 42.019C187.939 42.019 191.215 40.2323 191.215 35.4675C191.215 30.7028 186.361 30.6134 179.125 29.0649C169.565 27.0101 162.21 23.6748 162.21 14.5324C162.21 5.39009 171.62 0.536011 180.822 0.536011C190.024 0.536011 199.047 4.61582 200.209 15.813L189.756 17.4508C189.488 11.1078 186.272 8.36805 180.762 8.36805C175.253 8.36805 172.633 10.274 172.633 14.0262C172.633 17.7784 176.444 18.9398 183.264 20.1608C193.627 22.0071 201.698 24.866 201.698 35.1697C201.698 45.4735 191.453 49.9106 181.507 49.9106C171.561 49.9106 161.257 44.7885 160.899 33.2638L160.929 33.2936Z" fill="#EEF6F2"/>
</svg>
