<svg width="92" height="37" viewBox="0 0 92 37" fill="none" xmlns="http://www.w3.org/2000/svg">
<path d="M20.6997 9.72049C19.7593 9.07402 18.5322 8.75 17.0183 8.75H11.1575C10.6935 8.75 10.4371 8.9821 10.3884 9.44574L8.00747 24.391C7.98273 24.5377 8.01945 24.672 8.11731 24.794C8.2146 24.9163 8.33698 24.9771 8.48354 24.9771H11.2674C11.7556 24.9771 12.024 24.7455 12.0733 24.2812L12.7325 20.2521C12.7566 20.0569 12.8425 19.8981 12.989 19.7759C13.1355 19.6538 13.3186 19.574 13.5384 19.5374C13.7582 19.5011 13.9655 19.4829 14.1612 19.4829C14.3563 19.4829 14.5882 19.4952 14.8572 19.5195C15.1256 19.5439 15.2967 19.5557 15.37 19.5557C17.47 19.5557 19.1183 18.964 20.3151 17.7793C21.5113 16.5951 22.1101 14.953 22.1101 12.8525C22.1101 11.4119 21.6396 10.368 20.6997 9.72049ZM17.6778 14.208C17.5553 15.0628 17.2382 15.6242 16.7254 15.8929C16.2125 16.1619 15.48 16.2956 14.5277 16.2956L13.3189 16.3323L13.9417 12.4129C13.9903 12.1445 14.149 12.0101 14.4178 12.0101H15.114C16.0903 12.0101 16.7989 12.1509 17.2385 12.4312C17.6778 12.7122 17.8244 13.3048 17.6778 14.208Z" fill="#003087"/>
<path d="M82.5497 8.74988H79.8393C79.57 8.74988 79.4115 8.88423 79.3631 9.15283L76.982 24.3908L76.9453 24.4641C76.9453 24.5868 76.9942 24.7022 77.0921 24.8122C77.1893 24.9219 77.3119 24.9768 77.4582 24.9768H79.876C80.3393 24.9768 80.5959 24.7453 80.6453 24.281L83.0262 9.29905V9.26267C83.0261 8.92084 82.8669 8.74988 82.5497 8.74988Z" fill="#009CDE"/>
<path d="M49.8019 14.6472C49.8019 14.5254 49.7527 14.4092 49.6557 14.2994C49.5577 14.1896 49.4476 14.1344 49.3259 14.1344H46.5054C46.2362 14.1344 46.0166 14.2571 45.846 14.5006L41.9633 20.2152L40.3517 14.7206C40.2291 14.3301 39.9606 14.1344 39.5458 14.1344H36.7982C36.6758 14.1344 36.5659 14.1895 36.4688 14.2994C36.3709 14.4092 36.3223 14.5255 36.3223 14.6472C36.3223 14.6965 36.5604 15.4165 37.0365 16.8084C37.5125 18.2005 38.0254 19.7024 38.575 21.3143C39.1245 22.9258 39.4111 23.781 39.4357 23.8781C37.4332 26.6133 36.4321 28.0786 36.4321 28.2736C36.4321 28.5914 36.5908 28.7499 36.9083 28.7499H39.7288C39.9974 28.7499 40.2171 28.6281 40.3882 28.3838L49.7289 14.9036C49.7775 14.855 49.8019 14.7699 49.8019 14.6472Z" fill="#003087"/>
<path d="M76.0671 14.1344H73.283C72.941 14.1344 72.734 14.5374 72.6607 15.3433C72.0251 14.367 70.8659 13.8779 69.1806 13.8779C67.4224 13.8779 65.9263 14.5374 64.6935 15.8561C63.4601 17.1749 62.8438 18.7258 62.8438 20.5082C62.8438 21.9493 63.2648 23.0969 64.1072 23.9513C64.9498 24.8066 66.0791 25.2334 67.4959 25.2334C68.2038 25.2334 68.9242 25.0866 69.6568 24.7938C70.3895 24.5008 70.9628 24.1103 71.3787 23.6217C71.3787 23.6462 71.3538 23.7559 71.3053 23.9512C71.2561 24.1469 71.232 24.2937 71.232 24.3908C71.232 24.782 71.3903 24.9768 71.7083 24.9768H74.2359C74.6992 24.9768 74.9683 24.7452 75.0414 24.2809L76.5434 14.7206C76.5675 14.574 76.5308 14.4399 76.4334 14.3176C76.3355 14.1957 76.2137 14.1344 76.0671 14.1344ZM71.287 21.3507C70.6642 21.9612 69.9134 22.2663 69.0343 22.2663C68.3258 22.2663 67.7524 22.0712 67.3126 21.6803C66.8729 21.2902 66.6532 20.7529 66.6532 20.0686C66.6532 19.1656 66.9584 18.402 67.569 17.7793C68.1789 17.1565 68.9365 16.8452 69.8402 16.8452C70.5233 16.8452 71.0911 17.0467 71.5434 17.4495C71.9948 17.8525 72.2212 18.4083 72.2212 19.1164C72.2211 19.9955 71.9096 20.7405 71.287 21.3507Z" fill="#009CDE"/>
<path d="M34.454 14.1344H31.6702C31.3278 14.1344 31.1207 14.5374 31.0474 15.3433C30.388 14.367 29.228 13.8779 27.5674 13.8779C25.8092 13.8779 24.3132 14.5374 23.0802 15.8561C21.8468 17.1749 21.2305 18.7258 21.2305 20.5082C21.2305 21.9493 21.6518 23.0969 22.4943 23.9513C23.3368 24.8066 24.466 25.2334 25.8825 25.2334C26.5659 25.2334 27.2745 25.0866 28.007 24.7938C28.7396 24.5008 29.3257 24.1103 29.7653 23.6217C29.6673 23.9147 29.6187 24.1712 29.6187 24.3908C29.6187 24.782 29.7774 24.9768 30.0949 24.9768H32.6223C33.086 24.9768 33.3549 24.7452 33.4282 24.2809L34.93 14.7206C34.9541 14.574 34.9175 14.4399 34.8202 14.3176C34.7224 14.1957 34.6005 14.1344 34.454 14.1344ZM29.6738 21.3688C29.0509 21.9678 28.2875 22.2663 27.3845 22.2663C26.6759 22.2663 26.1081 22.0712 25.6811 21.6803C25.2535 21.2902 25.04 20.7529 25.04 20.0686C25.04 19.1656 25.3451 18.402 25.9559 17.7793C26.5659 17.1565 27.323 16.8452 28.2269 16.8452C28.9103 16.8452 29.4781 17.0467 29.9303 17.4495C30.3817 17.8525 30.6079 18.4083 30.6079 19.1164C30.6079 20.02 30.2965 20.7711 29.6738 21.3688Z" fill="#003087"/>
<path d="M62.311 9.72037C61.3707 9.0739 60.1439 8.74988 58.6298 8.74988H52.8056C52.3169 8.74988 52.0482 8.98198 51.9997 9.44561L49.6188 24.3907C49.5941 24.5375 49.6307 24.6718 49.7286 24.7938C49.8256 24.9161 49.9483 24.9768 50.0949 24.9768H53.0984C53.3914 24.9768 53.5867 24.8183 53.6845 24.5008L54.344 20.2519C54.3682 20.0566 54.4537 19.8979 54.6004 19.7756C54.7469 19.6536 54.9299 19.5738 55.1499 19.5371C55.3695 19.5009 55.5768 19.4826 55.7726 19.4826C55.9678 19.4826 56.1996 19.4949 56.4684 19.5192C56.737 19.5436 56.9084 19.5555 56.9811 19.5555C59.0814 19.5555 60.7295 18.9638 61.9263 17.7791C63.1229 16.5949 63.7212 14.9527 63.7212 12.8523C63.7213 11.4118 63.2509 10.3679 62.311 9.72037ZM58.5565 15.7462C58.0191 16.1124 57.2132 16.2955 56.139 16.2955L54.9667 16.3322L55.5896 12.4127C55.6379 12.1444 55.7966 12.01 56.0656 12.01H56.7247C57.2618 12.01 57.6892 12.0344 58.0072 12.0831C58.3241 12.1324 58.6298 12.2845 58.9228 12.5409C59.216 12.7974 59.3624 13.1699 59.3624 13.6583C59.3624 14.6839 59.0934 15.3797 58.5565 15.7462Z" fill="#009CDE"/>
</svg>
