<svg width="134" height="139" viewBox="0 0 134 139" fill="none" xmlns="http://www.w3.org/2000/svg">
<g clip-path="url(#clip0_2437_1210)">
<g clip-path="url(#clip1_2437_1210)">
<path d="M0.457031 0.3284L0.457031 138.14H138.268V0.3284H0.457031Z" fill="white"/>
<path d="M12.377 86.9429V90.8705H16.3046V86.9429H12.377Z" fill="black"/>
<path d="M12.377 83.0152V86.9429H16.3046V83.0152H12.377Z" fill="black"/>
<path d="M12.377 79.0876V83.0153H16.3046V79.0876H12.377Z" fill="black"/>
<path d="M12.377 75.16V79.0876H16.3046V75.16H12.377Z" fill="black"/>
<path d="M12.377 67.3048V71.2324H16.3046V67.3048H12.377Z" fill="black"/>
<path d="M12.377 59.4495V63.3771H16.3046V59.4495H12.377Z" fill="black"/>
<path d="M12.377 43.739V47.6666H16.3046V43.739H12.377Z" fill="black"/>
<path d="M16.3047 90.8705V94.7981H20.2323V90.8705H16.3047Z" fill="black"/>
<path d="M16.3047 86.9429V90.8705H20.2323V86.9429H16.3047Z" fill="black"/>
<path d="M16.3047 71.2324V75.16H20.2323V71.2324H16.3047Z" fill="black"/>
<path d="M16.3047 59.4495V63.3771H20.2323V59.4495H16.3047Z" fill="black"/>
<path d="M16.3047 55.5218V59.4495H20.2323V55.5218H16.3047Z" fill="black"/>
<path d="M16.3047 47.6666V51.5942H20.2323V47.6666H16.3047Z" fill="black"/>
<path d="M20.2324 86.9429V90.8705H24.16V86.9429H20.2324Z" fill="black"/>
<path d="M20.2324 83.0152V86.9429H24.16V83.0152H20.2324Z" fill="black"/>
<path d="M20.2324 79.0876V83.0153H24.16V79.0876H20.2324Z" fill="black"/>
<path d="M20.2324 71.2324V75.16H24.16V71.2324H20.2324Z" fill="black"/>
<path d="M20.2324 63.3771V67.3047H24.16V63.3771H20.2324Z" fill="black"/>
<path d="M20.2324 55.5218V59.4495H24.16V55.5218H20.2324Z" fill="black"/>
<path d="M20.2324 51.5942V55.5219H24.16V51.5942H20.2324Z" fill="black"/>
<path d="M20.2324 47.6666V51.5942H24.16V47.6666H20.2324Z" fill="black"/>
<path d="M20.2324 43.739V47.6666H24.16V43.739H20.2324Z" fill="black"/>
<path d="M24.1602 79.0876V83.0153H28.0878V79.0876H24.1602Z" fill="black"/>
<path d="M24.1602 75.16V79.0876H28.0878V75.16H24.1602Z" fill="black"/>
<path d="M24.1602 71.2324V75.16H28.0878V71.2324H24.1602Z" fill="black"/>
<path d="M24.1602 67.3048V71.2324H28.0878V67.3048H24.1602Z" fill="black"/>
<path d="M24.1602 59.4495V63.3771H28.0878V59.4495H24.1602Z" fill="black"/>
<path d="M24.1602 43.739V47.6666H28.0878V43.739H24.1602Z" fill="black"/>
<path d="M28.0879 86.9429V90.8705H32.0155V86.9429H28.0879Z" fill="black"/>
<path d="M28.0879 83.0152V86.9429H32.0155V83.0152H28.0879Z" fill="black"/>
<path d="M28.0879 75.16V79.0876H32.0155V75.16H28.0879Z" fill="black"/>
<path d="M28.0879 67.3048V71.2324H32.0155V67.3048H28.0879Z" fill="black"/>
<path d="M28.0879 63.3771V67.3047H32.0155V63.3771H28.0879Z" fill="black"/>
<path d="M28.0879 51.5942V55.5219H32.0155V51.5942H28.0879Z" fill="black"/>
<path d="M28.0879 47.6666V51.5942H32.0155V47.6666H28.0879Z" fill="black"/>
<path d="M28.0879 43.739V47.6666H32.0155V43.739H28.0879Z" fill="black"/>
<path d="M32.0156 90.8705V94.7981H35.9432V90.8705H32.0156Z" fill="black"/>
<path d="M32.0156 83.0152V86.9429H35.9432V83.0152H32.0156Z" fill="black"/>
<path d="M32.0156 75.16V79.0876H35.9432V75.16H32.0156Z" fill="black"/>
<path d="M32.0156 71.2324V75.16H35.9432V71.2324H32.0156Z" fill="black"/>
<path d="M32.0156 51.5942V55.5219H35.9432V51.5942H32.0156Z" fill="black"/>
<path d="M32.0156 47.6666V51.5942H35.9432V47.6666H32.0156Z" fill="black"/>
<path d="M35.9434 90.8705V94.7981H39.871V90.8705H35.9434Z" fill="black"/>
<path d="M35.9434 83.0152V86.9429H39.871V83.0152H35.9434Z" fill="black"/>
<path d="M35.9434 75.16V79.0876H39.871V75.16H35.9434Z" fill="black"/>
<path d="M35.9434 67.3048V71.2324H39.871V67.3048H35.9434Z" fill="black"/>
<path d="M35.9434 59.4495V63.3771H39.871V59.4495H35.9434Z" fill="black"/>
<path d="M35.9434 51.5942V55.5219H39.871V51.5942H35.9434Z" fill="black"/>
<path d="M35.9434 43.739V47.6666H39.871V43.739H35.9434Z" fill="black"/>
<path d="M39.8711 90.8705V94.7981H43.7987V90.8705H39.8711Z" fill="black"/>
<path d="M39.8711 79.0876V83.0153H43.7987V79.0876H39.8711Z" fill="black"/>
<path d="M39.8711 75.16V79.0876H43.7987V75.16H39.8711Z" fill="black"/>
<path d="M39.8711 71.2324V75.16H43.7987V71.2324H39.8711Z" fill="black"/>
<path d="M39.8711 67.3048V71.2324H43.7987V67.3048H39.8711Z" fill="black"/>
<path d="M39.8711 63.3771V67.3047H43.7987V63.3771H39.8711Z" fill="black"/>
<path d="M39.8711 55.5218V59.4495H43.7987V55.5218H39.8711Z" fill="black"/>
<path d="M39.8711 47.6666V51.5942H43.7987V47.6666H39.8711Z" fill="black"/>
<path d="M39.8711 43.739V47.6666H43.7987V43.739H39.8711Z" fill="black"/>
<path d="M43.7988 106.581V110.509H47.7265V106.581H43.7988Z" fill="black"/>
<path d="M43.7988 102.653V106.581H47.7265V102.653H43.7988Z" fill="black"/>
<path d="M43.7988 98.7257V102.653H47.7265V98.7257H43.7988Z" fill="black"/>
<path d="M43.7988 94.7981V98.7257H47.7265V94.7981H43.7988Z" fill="black"/>
<path d="M43.7988 86.9429V90.8705H47.7265V86.9429H43.7988Z" fill="black"/>
<path d="M43.7988 79.0876V83.0153H47.7265V79.0876H43.7988Z" fill="black"/>
<path d="M43.7988 75.16V79.0876H47.7265V75.16H43.7988Z" fill="black"/>
<path d="M43.7988 71.2324V75.16H47.7265V71.2324H43.7988Z" fill="black"/>
<path d="M43.7988 63.3771V67.3047H47.7265V63.3771H43.7988Z" fill="black"/>
<path d="M43.7988 59.4495V63.3771H47.7265V59.4495H43.7988Z" fill="black"/>
<path d="M43.7988 51.5942V55.5219H47.7265V51.5942H43.7988Z" fill="black"/>
<path d="M43.7988 47.6666V51.5942H47.7265V47.6666H43.7988Z" fill="black"/>
<path d="M43.7988 35.8838V39.8114H47.7265V35.8838H43.7988Z" fill="black"/>
<path d="M43.7988 31.9562V35.8838H47.7265V31.9562H43.7988Z" fill="black"/>
<path d="M43.7988 16.2456V20.1732H47.7265V16.2456H43.7988Z" fill="black"/>
<path d="M47.7266 122.291V126.219H51.6542V122.291H47.7266Z" fill="black"/>
<path d="M47.7266 114.436V118.364H51.6542V114.436H47.7266Z" fill="black"/>
<path d="M47.7266 106.581V110.509H51.6542V106.581H47.7266Z" fill="black"/>
<path d="M47.7266 102.653V106.581H51.6542V102.653H47.7266Z" fill="black"/>
<path d="M47.7266 43.739V47.6666H51.6542V43.739H47.7266Z" fill="black"/>
<path d="M47.7266 35.8838V39.8114H51.6542V35.8838H47.7266Z" fill="black"/>
<path d="M47.7266 28.0286V31.9562H51.6542V28.0286H47.7266Z" fill="black"/>
<path d="M47.7266 24.1008V28.0284H51.6542V24.1008H47.7266Z" fill="black"/>
<path d="M47.7266 20.1732V24.1008H51.6542V20.1732H47.7266Z" fill="black"/>
<path d="M47.7266 12.318V16.2456H51.6542V12.318H47.7266Z" fill="black"/>
<path d="M51.6543 122.291V126.219H55.5819V122.291H51.6543Z" fill="black"/>
<path d="M51.6543 118.364V122.292H55.5819V118.364H51.6543Z" fill="black"/>
<path d="M51.6543 114.436V118.364H55.5819V114.436H51.6543Z" fill="black"/>
<path d="M51.6543 110.509V114.436H55.5819V110.509H51.6543Z" fill="black"/>
<path d="M51.6543 98.7257V102.653H55.5819V98.7257H51.6543Z" fill="black"/>
<path d="M51.6543 94.7981V98.7257H55.5819V94.7981H51.6543Z" fill="black"/>
<path d="M51.6543 90.8705V94.7981H55.5819V90.8705H51.6543Z" fill="black"/>
<path d="M51.6543 43.739V47.6666H55.5819V43.739H51.6543Z" fill="black"/>
<path d="M51.6543 35.8838V39.8114H55.5819V35.8838H51.6543Z" fill="black"/>
<path d="M51.6543 31.9562V35.8838H55.5819V31.9562H51.6543Z" fill="black"/>
<path d="M51.6543 28.0286V31.9562H55.5819V28.0286H51.6543Z" fill="black"/>
<path d="M51.6543 20.1732V24.1008H55.5819V20.1732H51.6543Z" fill="black"/>
<path d="M51.6543 12.318V16.2456H55.5819V12.318H51.6543Z" fill="black"/>
<path d="M55.582 122.291V126.219H59.5097V122.291H55.582Z" fill="black"/>
<path d="M55.582 114.436V118.364H59.5097V114.436H55.582Z" fill="black"/>
<path d="M55.582 110.509V114.436H59.5097V110.509H55.582Z" fill="black"/>
<path d="M55.582 90.8705V94.7981H59.5097V90.8705H55.582Z" fill="black"/>
<path d="M55.582 43.739V47.6666H59.5097V43.739H55.582Z" fill="black"/>
<path d="M55.582 24.1008V28.0284H59.5097V24.1008H55.582Z" fill="black"/>
<path d="M55.582 20.1732V24.1008H59.5097V20.1732H55.582Z" fill="black"/>
<path d="M55.582 12.318V16.2456H59.5097V12.318H55.582Z" fill="black"/>
<path d="M59.5098 122.291V126.219H63.4374V122.291H59.5098Z" fill="black"/>
<path d="M59.5098 110.509V114.436H63.4374V110.509H59.5098Z" fill="black"/>
<path d="M59.5098 102.653V106.581H63.4374V102.653H59.5098Z" fill="black"/>
<path d="M59.5098 98.7257V102.653H63.4374V98.7257H59.5098Z" fill="black"/>
<path d="M59.5098 90.8705V94.7981H63.4374V90.8705H59.5098Z" fill="black"/>
<path d="M59.5098 28.0286V31.9562H63.4374V28.0286H59.5098Z" fill="black"/>
<path d="M59.5098 24.1008V28.0284H63.4374V24.1008H59.5098Z" fill="black"/>
<path d="M63.4375 122.291V126.219H67.3651V122.291H63.4375Z" fill="black"/>
<path d="M63.4375 118.364V122.292H67.3651V118.364H63.4375Z" fill="black"/>
<path d="M63.4375 114.436V118.364H67.3651V114.436H63.4375Z" fill="black"/>
<path d="M63.4375 110.509V114.436H67.3651V110.509H63.4375Z" fill="black"/>
<path d="M63.4375 106.581V110.509H67.3651V106.581H63.4375Z" fill="black"/>
<path d="M63.4375 39.8114V43.739H67.3651V39.8114H63.4375Z" fill="black"/>
<path d="M63.4375 35.8838V39.8114H67.3651V35.8838H63.4375Z" fill="black"/>
<path d="M63.4375 28.0286V31.9562H67.3651V28.0286H63.4375Z" fill="black"/>
<path d="M63.4375 20.1732V24.1008H67.3651V20.1732H63.4375Z" fill="black"/>
<path d="M63.4375 16.2456V20.1732H67.3651V16.2456H63.4375Z" fill="black"/>
<path d="M63.4375 12.318V16.2456H67.3651V12.318H63.4375Z" fill="black"/>
<path d="M67.3652 110.509V114.436H71.2929V110.509H67.3652Z" fill="black"/>
<path d="M67.3652 102.653V106.581H71.2929V102.653H67.3652Z" fill="black"/>
<path d="M67.3652 98.7257V102.653H71.2929V98.7257H67.3652Z" fill="black"/>
<path d="M67.3652 94.7981V98.7257H71.2929V94.7981H67.3652Z" fill="black"/>
<path d="M67.3652 90.8705V94.7981H71.2929V90.8705H67.3652Z" fill="black"/>
<path d="M67.3652 35.8838V39.8114H71.2929V35.8838H67.3652Z" fill="black"/>
<path d="M67.3652 28.0286V31.9562H71.2929V28.0286H67.3652Z" fill="black"/>
<path d="M67.3652 20.1732V24.1008H71.2929V20.1732H67.3652Z" fill="black"/>
<path d="M71.293 122.291V126.219H75.2206V122.291H71.293Z" fill="black"/>
<path d="M71.293 118.364V122.292H75.2206V118.364H71.293Z" fill="black"/>
<path d="M71.293 114.436V118.364H75.2206V114.436H71.293Z" fill="black"/>
<path d="M71.293 106.581V110.509H75.2206V106.581H71.293Z" fill="black"/>
<path d="M71.293 94.7981V98.7257H75.2206V94.7981H71.293Z" fill="black"/>
<path d="M71.293 39.8114V43.739H75.2206V39.8114H71.293Z" fill="black"/>
<path d="M71.293 20.1732V24.1008H75.2206V20.1732H71.293Z" fill="black"/>
<path d="M71.293 16.2456V20.1732H75.2206V16.2456H71.293Z" fill="black"/>
<path d="M75.2188 118.364V122.292H79.1464V118.364H75.2188Z" fill="black"/>
<path d="M75.2188 114.436V118.364H79.1464V114.436H75.2188Z" fill="black"/>
<path d="M75.2188 102.653V106.581H79.1464V102.653H75.2188Z" fill="black"/>
<path d="M75.2188 98.7257V102.653H79.1464V98.7257H75.2188Z" fill="black"/>
<path d="M75.2188 90.8705V94.7981H79.1464V90.8705H75.2188Z" fill="black"/>
<path d="M75.2188 43.739V47.6666H79.1464V43.739H75.2188Z" fill="black"/>
<path d="M75.2188 39.8114V43.739H79.1464V39.8114H75.2188Z" fill="black"/>
<path d="M75.2188 31.9562V35.8838H79.1464V31.9562H75.2188Z" fill="black"/>
<path d="M75.2188 24.1008V28.0284H79.1464V24.1008H75.2188Z" fill="black"/>
<path d="M75.2188 20.1732V24.1008H79.1464V20.1732H75.2188Z" fill="black"/>
<path d="M75.2188 16.2456V20.1732H79.1464V16.2456H75.2188Z" fill="black"/>
<path d="M79.1465 122.291V126.219H83.0741V122.291H79.1465Z" fill="black"/>
<path d="M79.1465 118.364V122.292H83.0741V118.364H79.1465Z" fill="black"/>
<path d="M79.1465 114.436V118.364H83.0741V114.436H79.1465Z" fill="black"/>
<path d="M79.1465 94.7981V98.7257H83.0741V94.7981H79.1465Z" fill="black"/>
<path d="M79.1465 90.8705V94.7981H83.0741V90.8705H79.1465Z" fill="black"/>
<path d="M79.1465 35.8838V39.8114H83.0741V35.8838H79.1465Z" fill="black"/>
<path d="M79.1465 31.9562V35.8838H83.0741V31.9562H79.1465Z" fill="black"/>
<path d="M79.1465 20.1732V24.1008H83.0741V20.1732H79.1465Z" fill="black"/>
<path d="M83.0742 110.509V114.436H87.0018V110.509H83.0742Z" fill="black"/>
<path d="M83.0742 102.653V106.581H87.0018V102.653H83.0742Z" fill="black"/>
<path d="M83.0742 98.7257V102.653H87.0018V98.7257H83.0742Z" fill="black"/>
<path d="M83.0742 90.8705V94.7981H87.0018V90.8705H83.0742Z" fill="black"/>
<path d="M83.0742 39.8114V43.739H87.0018V39.8114H83.0742Z" fill="black"/>
<path d="M83.0742 35.8838V39.8114H87.0018V35.8838H83.0742Z" fill="black"/>
<path d="M83.0742 31.9562V35.8838H87.0018V31.9562H83.0742Z" fill="black"/>
<path d="M83.0742 28.0286V31.9562H87.0018V28.0286H83.0742Z" fill="black"/>
<path d="M83.0742 20.1732V24.1008H87.0018V20.1732H83.0742Z" fill="black"/>
<path d="M83.0742 12.318V16.2456H87.0018V12.318H83.0742Z" fill="black"/>
<path d="M87.002 114.436V118.364H90.9296V114.436H87.002Z" fill="black"/>
<path d="M87.002 110.509V114.436H90.9296V110.509H87.002Z" fill="black"/>
<path d="M87.002 106.581V110.509H90.9296V106.581H87.002Z" fill="black"/>
<path d="M87.002 43.739V47.6666H90.9296V43.739H87.002Z" fill="black"/>
<path d="M87.002 31.9562V35.8838H90.9296V31.9562H87.002Z" fill="black"/>
<path d="M87.002 24.1008V28.0284H90.9296V24.1008H87.002Z" fill="black"/>
<path d="M87.002 16.2456V20.1732H90.9296V16.2456H87.002Z" fill="black"/>
<path d="M90.9297 122.291V126.219H94.8573V122.291H90.9297Z" fill="black"/>
<path d="M90.9297 118.364V122.292H94.8573V118.364H90.9297Z" fill="black"/>
<path d="M90.9297 114.436V118.364H94.8573V114.436H90.9297Z" fill="black"/>
<path d="M90.9297 98.7257V102.653H94.8573V98.7257H90.9297Z" fill="black"/>
<path d="M90.9297 90.8705V94.7981H94.8573V90.8705H90.9297Z" fill="black"/>
<path d="M90.9297 86.9429V90.8705H94.8573V86.9429H90.9297Z" fill="black"/>
<path d="M90.9297 75.16V79.0876H94.8573V75.16H90.9297Z" fill="black"/>
<path d="M90.9297 67.3048V71.2324H94.8573V67.3048H90.9297Z" fill="black"/>
<path d="M90.9297 63.3771V67.3047H94.8573V63.3771H90.9297Z" fill="black"/>
<path d="M90.9297 51.5942V55.5219H94.8573V51.5942H90.9297Z" fill="black"/>
<path d="M90.9297 47.6666V51.5942H94.8573V47.6666H90.9297Z" fill="black"/>
<path d="M90.9297 43.739V47.6666H94.8573V43.739H90.9297Z" fill="black"/>
<path d="M90.9297 39.8114V43.739H94.8573V39.8114H90.9297Z" fill="black"/>
<path d="M90.9297 35.8838V39.8114H94.8573V35.8838H90.9297Z" fill="black"/>
<path d="M90.9297 31.9562V35.8838H94.8573V31.9562H90.9297Z" fill="black"/>
<path d="M90.9297 28.0286V31.9562H94.8573V28.0286H90.9297Z" fill="black"/>
<path d="M90.9297 24.1008V28.0284H94.8573V24.1008H90.9297Z" fill="black"/>
<path d="M90.9297 20.1732V24.1008H94.8573V20.1732H90.9297Z" fill="black"/>
<path d="M90.9297 12.318V16.2456H94.8573V12.318H90.9297Z" fill="black"/>
<path d="M94.8574 90.8705V94.7981H98.785V90.8705H94.8574Z" fill="black"/>
<path d="M94.8574 86.9429V90.8705H98.785V86.9429H94.8574Z" fill="black"/>
<path d="M94.8574 75.16V79.0876H98.785V75.16H94.8574Z" fill="black"/>
<path d="M94.8574 71.2324V75.16H98.785V71.2324H94.8574Z" fill="black"/>
<path d="M94.8574 59.4495V63.3771H98.785V59.4495H94.8574Z" fill="black"/>
<path d="M94.8574 51.5942V55.5219H98.785V51.5942H94.8574Z" fill="black"/>
<path d="M94.8574 43.739V47.6666H98.785V43.739H94.8574Z" fill="black"/>
<path d="M94.8574 28.0286V31.9562H98.785V28.0286H94.8574Z" fill="black"/>
<path d="M94.8574 20.1732V24.1008H98.785V20.1732H94.8574Z" fill="black"/>
<path d="M94.8574 16.2456V20.1732H98.785V16.2456H94.8574Z" fill="black"/>
<path d="M94.8574 12.318V16.2456H98.785V12.318H94.8574Z" fill="black"/>
<path d="M98.7852 90.8705V94.7981H102.713V90.8705H98.7852Z" fill="black"/>
<path d="M98.7852 83.0152V86.9429H102.713V83.0152H98.7852Z" fill="black"/>
<path d="M98.7852 79.0876V83.0153H102.713V79.0876H98.7852Z" fill="black"/>
<path d="M98.7852 75.16V79.0876H102.713V75.16H98.7852Z" fill="black"/>
<path d="M98.7852 71.2324V75.16H102.713V71.2324H98.7852Z" fill="black"/>
<path d="M98.7852 67.3048V71.2324H102.713V67.3048H98.7852Z" fill="black"/>
<path d="M98.7852 59.4495V63.3771H102.713V59.4495H98.7852Z" fill="black"/>
<path d="M98.7852 55.5218V59.4495H102.713V55.5218H98.7852Z" fill="black"/>
<path d="M98.7852 47.6666V51.5942H102.713V47.6666H98.7852Z" fill="black"/>
<path d="M98.7852 43.739V47.6666H102.713V43.739H98.7852Z" fill="black"/>
<path d="M98.7852 35.8838V39.8114H102.713V35.8838H98.7852Z" fill="black"/>
<path d="M98.7852 28.0286V31.9562H102.713V28.0286H98.7852Z" fill="black"/>
<path d="M98.7852 24.1008V28.0284H102.713V24.1008H98.7852Z" fill="black"/>
<path d="M98.7852 20.1732V24.1008H102.713V20.1732H98.7852Z" fill="black"/>
<path d="M98.7852 16.2456V20.1732H102.713V16.2456H98.7852Z" fill="black"/>
<path d="M98.7852 12.318V16.2456H102.713V12.318H98.7852Z" fill="black"/>
<path d="M102.713 90.8705V94.7981H106.641V90.8705H102.713Z" fill="black"/>
<path d="M102.713 83.0152V86.9429H106.641V83.0152H102.713Z" fill="black"/>
<path d="M102.713 79.0876V83.0153H106.641V79.0876H102.713Z" fill="black"/>
<path d="M102.713 75.16V79.0876H106.641V75.16H102.713Z" fill="black"/>
<path d="M102.713 67.3048V71.2324H106.641V67.3048H102.713Z" fill="black"/>
<path d="M102.713 59.4495V63.3771H106.641V59.4495H102.713Z" fill="black"/>
<path d="M102.713 55.5218V59.4495H106.641V55.5218H102.713Z" fill="black"/>
<path d="M102.713 51.5942V55.5219H106.641V51.5942H102.713Z" fill="black"/>
<path d="M102.713 47.6666V51.5942H106.641V47.6666H102.713Z" fill="black"/>
<path d="M102.713 43.739V47.6666H106.641V43.739H102.713Z" fill="black"/>
<path d="M102.713 28.0286V31.9562H106.641V28.0286H102.713Z" fill="black"/>
<path d="M102.713 24.1008V28.0284H106.641V24.1008H102.713Z" fill="black"/>
<path d="M102.713 16.2456V20.1732H106.641V16.2456H102.713Z" fill="black"/>
<path d="M106.641 90.8705V94.7981H110.568V90.8705H106.641Z" fill="black"/>
<path d="M106.641 86.9429V90.8705H110.568V86.9429H106.641Z" fill="black"/>
<path d="M106.641 79.0876V83.0153H110.568V79.0876H106.641Z" fill="black"/>
<path d="M106.641 71.2324V75.16H110.568V71.2324H106.641Z" fill="black"/>
<path d="M106.641 67.3048V71.2324H110.568V67.3048H106.641Z" fill="black"/>
<path d="M106.641 55.5218V59.4495H110.568V55.5218H106.641Z" fill="black"/>
<path d="M106.641 43.739V47.6666H110.568V43.739H106.641Z" fill="black"/>
<path d="M106.641 39.8114V43.739H110.568V39.8114H106.641Z" fill="black"/>
<path d="M106.641 35.8838V39.8114H110.568V35.8838H106.641Z" fill="black"/>
<path d="M106.641 31.9562V35.8838H110.568V31.9562H106.641Z" fill="black"/>
<path d="M106.641 28.0286V31.9562H110.568V28.0286H106.641Z" fill="black"/>
<path d="M106.641 24.1008V28.0284H110.568V24.1008H106.641Z" fill="black"/>
<path d="M106.641 20.1732V24.1008H110.568V20.1732H106.641Z" fill="black"/>
<path d="M106.641 16.2456V20.1732H110.568V16.2456H106.641Z" fill="black"/>
<path d="M110.568 79.0876V83.0153H114.496V79.0876H110.568Z" fill="black"/>
<path d="M110.568 67.3048V71.2324H114.496V67.3048H110.568Z" fill="black"/>
<path d="M110.568 63.3771V67.3047H114.496V63.3771H110.568Z" fill="black"/>
<path d="M110.568 55.5218V59.4495H114.496V55.5218H110.568Z" fill="black"/>
<path d="M110.568 51.5942V55.5219H114.496V51.5942H110.568Z" fill="black"/>
<path d="M110.568 47.6666V51.5942H114.496V47.6666H110.568Z" fill="black"/>
<path d="M110.568 35.8838V39.8114H114.496V35.8838H110.568Z" fill="black"/>
<path d="M110.568 28.0286V31.9562H114.496V28.0286H110.568Z" fill="black"/>
<path d="M110.568 20.1732V24.1008H114.496V20.1732H110.568Z" fill="black"/>
<path d="M110.568 16.2456V20.1732H114.496V16.2456H110.568Z" fill="black"/>
<path d="M114.496 86.9429V90.8705H118.424V86.9429H114.496Z" fill="black"/>
<path d="M114.496 83.0152V86.9429H118.424V83.0152H114.496Z" fill="black"/>
<path d="M114.496 75.16V79.0876H118.424V75.16H114.496Z" fill="black"/>
<path d="M114.496 71.2324V75.16H118.424V71.2324H114.496Z" fill="black"/>
<path d="M114.496 67.3048V71.2324H118.424V67.3048H114.496Z" fill="black"/>
<path d="M114.496 63.3771V67.3047H118.424V63.3771H114.496Z" fill="black"/>
<path d="M114.496 59.4495V63.3771H118.424V59.4495H114.496Z" fill="black"/>
<path d="M114.496 39.8114V43.739H118.424V39.8114H114.496Z" fill="black"/>
<path d="M114.496 20.1732V24.1008H118.424V20.1732H114.496Z" fill="black"/>
<path d="M114.496 16.2456V20.1732H118.424V16.2456H114.496Z" fill="black"/>
<path d="M114.496 12.318V16.2456H118.424V12.318H114.496Z" fill="black"/>
<path d="M118.424 86.9429V90.8705H122.351V86.9429H118.424Z" fill="black"/>
<path d="M118.424 83.0152V86.9429H122.351V83.0152H118.424Z" fill="black"/>
<path d="M118.424 75.16V79.0876H122.351V75.16H118.424Z" fill="black"/>
<path d="M118.424 67.3048V71.2324H122.351V67.3048H118.424Z" fill="black"/>
<path d="M118.424 63.3771V67.3047H122.351V63.3771H118.424Z" fill="black"/>
<path d="M118.424 35.8838V39.8114H122.351V35.8838H118.424Z" fill="black"/>
<path d="M118.424 28.0286V31.9562H122.351V28.0286H118.424Z" fill="black"/>
<path d="M118.424 24.1008V28.0284H122.351V24.1008H118.424Z" fill="black"/>
<path d="M122.352 86.9429V90.8705H126.279V86.9429H122.352Z" fill="black"/>
<path d="M122.352 83.0152V86.9429H126.279V83.0152H122.352Z" fill="black"/>
<path d="M122.352 79.0876V83.0153H126.279V79.0876H122.352Z" fill="black"/>
<path d="M122.352 71.2324V75.16H126.279V71.2324H122.352Z" fill="black"/>
<path d="M122.352 63.3771V67.3047H126.279V63.3771H122.352Z" fill="black"/>
<path d="M122.352 55.5218V59.4495H126.279V55.5218H122.352Z" fill="black"/>
<path d="M122.352 51.5942V55.5219H126.279V51.5942H122.352Z" fill="black"/>
<path d="M122.352 43.739V47.6666H126.279V43.739H122.352Z" fill="black"/>
<path d="M122.352 35.8838V39.8114H126.279V35.8838H122.352Z" fill="black"/>
<path d="M122.352 31.9562V35.8838H126.279V31.9562H122.352Z" fill="black"/>
<path d="M122.352 28.0286V31.9562H126.279V28.0286H122.352Z" fill="black"/>
<path d="M122.352 20.1732V24.1008H126.279V20.1732H122.352Z" fill="black"/>
<path d="M122.352 16.2456V20.1732H126.279V16.2456H122.352Z" fill="black"/>
<g clip-path="url(#clip2_2437_1210)">
<path d="M12.373 125.386C12.373 125.846 12.7501 126.223 13.2096 126.223H16.3046H20.2322H24.1598H28.0875H32.0151H35.9427H39.0377C39.4972 126.223 39.8743 125.85 39.8743 125.386V99.5584C39.8743 99.0989 39.5011 98.7218 39.0377 98.7218H35.9427H32.0151H28.0875H24.1598H20.2322H16.3046H13.2096C12.7501 98.7218 12.373 99.0949 12.373 99.5584L12.373 125.386ZM20.2322 102.653H24.1598H28.0875H32.0151H35.4635C35.7306 102.653 35.9427 102.869 35.9427 103.133V121.812C35.9427 122.079 35.7267 122.291 35.4635 122.291H32.0151H28.0875H24.1598H20.2322H16.7838C16.5167 122.291 16.3046 122.075 16.3046 121.812V103.133C16.3046 102.865 16.5206 102.653 16.7838 102.653H20.2322Z" fill="black"/>
</g>
<path d="M28.0877 106.581H24.1601H21.0651C20.6056 106.581 20.2285 106.954 20.2285 107.418V117.531C20.2285 117.991 20.6016 118.368 21.0651 118.368H24.1601H28.0877H31.1827C31.6422 118.368 32.0192 117.995 32.0192 117.531V107.418C32.0192 106.958 31.6461 106.581 31.1827 106.581H28.0877Z" fill="black"/>
<g clip-path="url(#clip3_2437_1210)">
<path d="M12.373 38.9786C12.373 39.4381 12.7501 39.8152 13.2096 39.8152H16.3046H20.2322H24.1598H28.0875H32.0151H35.9427H39.0377C39.4972 39.8152 39.8743 39.4421 39.8743 38.9786V13.1505C39.8743 12.691 39.5011 12.314 39.0377 12.314H35.9427H32.0151H28.0875H24.1598H20.2322H16.3046H13.2096C12.7501 12.314 12.373 12.6871 12.373 13.1505L12.373 38.9786ZM20.2322 16.2455H24.1598H28.0875H32.0151H35.4635C35.7306 16.2455 35.9427 16.4615 35.9427 16.7247V35.4045C35.9427 35.6715 35.7267 35.8836 35.4635 35.8836H32.0151H28.0875H24.1598H20.2322H16.7838C16.5167 35.8836 16.3046 35.6676 16.3046 35.4045V16.7247C16.3046 16.4576 16.5206 16.2455 16.7838 16.2455H20.2322Z" fill="black"/>
</g>
<path d="M28.0877 20.1733H24.1601H21.0651C20.6056 20.1733 20.2285 20.5464 20.2285 21.0099V31.1235C20.2285 31.583 20.6016 31.9601 21.0651 31.9601H24.1601H28.0877H31.1827C31.6422 31.9601 32.0192 31.587 32.0192 31.1235V21.0099C32.0192 20.5503 31.6461 20.1733 31.1827 20.1733H28.0877Z" fill="black"/>
<g clip-path="url(#clip4_2437_1210)">
<path d="M98.7812 125.386C98.7812 125.846 99.1583 126.223 99.6178 126.223H102.713H106.64H110.568H114.496H118.423H122.351H125.446C125.905 126.223 126.282 125.85 126.282 125.386V99.5584C126.282 99.0989 125.909 98.7218 125.446 98.7218H122.351H118.423H114.496H110.568H106.64H102.713H99.6178C99.1583 98.7218 98.7812 99.0949 98.7812 99.5584V125.386ZM106.64 102.653H110.568H114.496H118.423H121.872C122.139 102.653 122.351 102.869 122.351 103.133V121.812C122.351 122.079 122.135 122.291 121.872 122.291H118.423H114.496H110.568H106.64H103.192C102.925 122.291 102.713 122.075 102.713 121.812V103.133C102.713 102.865 102.929 102.653 103.192 102.653H106.64Z" fill="black"/>
</g>
<path d="M114.496 106.581H110.568H107.473C107.014 106.581 106.637 106.954 106.637 107.418V117.531C106.637 117.991 107.01 118.368 107.473 118.368H110.568H114.496H117.591C118.05 118.368 118.427 117.995 118.427 117.531V107.418C118.427 106.958 118.054 106.581 117.591 106.581H114.496Z" fill="black"/>
<path d="M82.4409 82.4493H72.9023V84.0316H82.4409H84.0231V82.4493V72.9108H82.4409V82.4493Z" fill="black"/>
<path d="M56.1487 82.4493V72.9108H54.5664V82.4493V84.0316H56.1487H65.6872V82.4493H56.1487Z" fill="black"/>
<path d="M56.1487 56.1567H65.6872V54.5744H56.1487H54.5664V56.1567V65.6952H56.1487V56.1567Z" fill="black"/>
<path d="M82.4409 56.1567V65.6952H84.0231V56.1567V54.5744H82.4409H72.9023V56.1567H82.4409Z" fill="black"/>
<path d="M65.0306 75.1328C64.8454 75.1328 64.6939 75.2001 64.5761 75.3348C64.4639 75.4694 64.3573 75.6995 64.2563 76.0361C64.088 76.6197 63.8916 77.0573 63.6615 77.3547C63.4315 77.6521 63.1173 77.798 62.7189 77.798C62.3205 77.798 61.9895 77.6296 61.737 77.2874C61.4845 76.9451 61.3555 76.5131 61.3555 75.98C61.3555 75.4414 61.4957 75.0094 61.7819 74.6671C62.0681 74.3304 62.4159 74.1677 62.8367 74.1789L62.8592 74.1846V75.1328C62.6348 75.1328 62.4496 75.2057 62.3093 75.3572C62.169 75.5087 62.1017 75.7219 62.1017 75.9913C62.1017 76.255 62.1578 76.457 62.2757 76.5972C62.3935 76.7375 62.5394 76.8105 62.7189 76.8105C62.8816 76.8105 63.0219 76.7319 63.1285 76.5804C63.2351 76.4289 63.3473 76.1652 63.4652 75.7893C63.6167 75.2506 63.813 74.841 64.0599 74.5661C64.3068 74.2912 64.6266 74.1509 65.0306 74.1509C65.4458 74.1509 65.7769 74.3136 66.0181 74.6446C66.2594 74.9757 66.3828 75.4077 66.3828 75.952C66.3828 76.485 66.2482 76.9451 65.9732 77.3435C65.6983 77.7419 65.3168 77.9326 64.823 77.9214L64.8006 77.9158V76.9619C65.0923 76.9619 65.3055 76.8722 65.4402 76.6982C65.5749 76.5187 65.6422 76.2718 65.6422 75.9576C65.6422 75.6939 65.5861 75.4863 65.4795 75.346C65.3616 75.2001 65.2158 75.1328 65.0306 75.1328Z" fill="black"/>
<path d="M64.6432 69.7295L64.6656 69.7239C65.1931 69.7127 65.6083 69.8754 65.9169 70.2065C66.2255 70.5375 66.377 70.992 66.377 71.5811C66.377 72.1703 66.1862 72.6472 65.8103 73.0119C65.4343 73.3766 64.9462 73.5618 64.3514 73.5618H63.3808C62.786 73.5618 62.3035 73.3822 61.9219 73.0231C61.5404 72.664 61.3496 72.1983 61.3496 71.626C61.3496 71.02 61.5067 70.5487 61.8153 70.2121C62.1239 69.8698 62.5447 69.7071 63.0834 69.7183L63.1058 69.7239V70.6778C62.786 70.6778 62.5391 70.7563 62.3652 70.9078C62.1912 71.0593 62.1071 71.3006 62.1071 71.626C62.1071 71.9178 62.2249 72.1534 62.4662 72.3218C62.7018 72.4957 63.0048 72.5799 63.3751 72.5799H64.3514C64.7218 72.5799 65.0304 72.4901 65.266 72.3105C65.5017 72.131 65.6251 71.8841 65.6251 71.5755C65.6251 71.2669 65.5409 71.0425 65.3782 70.8966C65.2155 70.7507 64.9686 70.6778 64.6432 70.6778V69.7295Z" fill="black"/>
<path d="M65.2544 66.4079V68.1192L66.3092 68.4502V69.4377L61.4277 67.7601V66.7557L66.3092 65.0837V66.0712L65.2544 66.4079ZM64.4857 67.8779V66.6491L62.5667 67.2551V67.2776L64.4857 67.8779Z" fill="black"/>
<path d="M66.3036 60.6847V61.661L62.9707 63.6304L62.9763 63.6529H66.3092V64.6292H61.4277V63.6529L64.7606 61.6834L64.755 61.661H61.4277V60.6847H66.3036Z" fill="black"/>
<path d="M68.1345 76.3503L75.5184 73.4551V73.4158L68.1345 70.5206V68.9496H77.2242V70.1784H73.6276L69.93 70.0549L69.9244 70.0886L77.2242 73.0343V73.8535L69.9412 76.788L69.9468 76.8217L73.622 76.7038H77.2185V77.9326H68.1289V76.3503H68.1345Z" fill="black"/>
<path d="M73.0106 61.2963V65.4596H76.2593V60.6566H77.2244V66.6884H68.1348V60.724H69.0998V65.4596H72.0456V61.2963H73.0106Z" fill="black"/>
</g>
</g>
<defs>
<clipPath id="clip0_2437_1210">
<rect width="137.811" height="137.811" fill="white" transform="matrix(0 -1 1 0 0.457031 138.14)"/>
</clipPath>
<clipPath id="clip1_2437_1210">
<rect width="137.811" height="137.811" fill="white" transform="matrix(0 -1 1 0 0.457031 138.14)"/>
</clipPath>
<clipPath id="clip2_2437_1210">
<rect width="27.4934" height="27.4934" fill="white" transform="matrix(0 -1 1 0 12.377 126.219)"/>
</clipPath>
<clipPath id="clip3_2437_1210">
<rect width="27.4934" height="27.4934" fill="white" transform="matrix(0 -1 1 0 12.377 39.8114)"/>
</clipPath>
<clipPath id="clip4_2437_1210">
<rect width="27.4934" height="27.4934" fill="white" transform="matrix(0 -1 1 0 98.7852 126.219)"/>
</clipPath>
</defs>
</svg>
